<svg xmlns="http://www.w3.org/2000/svg" viewBox="0 0 64 64">
  <rect width="64" height="64" rx="14" fill="#ffffff"/>
  <path d="M10 28 L32 8 L54 28" fill="none" stroke="#000d10" stroke-width="3.5" stroke-linecap="round" stroke-linejoin="round"/>
  <path d="M28 14 L32 11 L36 14 L36 19 L28 19 Z" fill="none" stroke="#000d10" stroke-width="2.2" stroke-linejoin="round"/>
  <g transform="translate(29 22)">
    <rect x="0" y="0" width="2.6" height="2.6" rx="0.4" fill="#bc7155"/>
    <rect x="3.4" y="0" width="2.6" height="2.6" rx="0.4" fill="#bc7155"/>
    <rect x="0" y="3.4" width="2.6" height="2.6" rx="0.4" fill="#bc7155"/>
    <rect x="3.4" y="3.4" width="2.6" height="2.6" rx="0.4" fill="#bc7155"/>
  </g>
  <path d="M28 32 Q14 32 14 38.5 Q14 45 21 45 L28 45 Q28 45 28 51 L14 51"
        fill="none" stroke="#000d10" stroke-width="3.5" stroke-linecap="round" stroke-linejoin="round"/>
  <path d="M36 51 L36 32 L44 32 Q50 32 50 38 Q50 44 44 44 L36 44 M44 44 L51 51"
        fill="none" stroke="#000d10" stroke-width="3.5" stroke-linecap="round" stroke-linejoin="round"/>
</svg>
