<svg xmlns="http://www.w3.org/2000/svg" viewBox="0 0 200 200">
  <rect width="200" height="200" rx="32" fill="#ffffff"/>
  <g fill="none" stroke="#000d10" stroke-linecap="square" stroke-linejoin="miter" stroke-miterlimit="2">
    <path d="M22 92 L100 22 L178 92" stroke-width="11"/>
    <path d="M88 41 L100 30 L112 41 L112 58 L88 58 Z" stroke-width="6"/>
    <path d="M22 158 L178 158" stroke-width="11"/>
    <path d="M86 80 L40 80 L40 112 L86 112 L86 144 L40 144" stroke-width="13"/>
    <path d="M114 144 L114 80 L150 80" stroke-width="13"/>
    <path d="M150 80 A18 18 0 0 1 150 116 L114 116" stroke-width="13"/>
    <path d="M132 116 L160 144" stroke-width="13"/>
  </g>
  <g transform="translate(92 42)" fill="#bc7155">
    <rect x="0" y="0" width="6" height="6" rx="0.6"/>
    <rect x="9" y="0" width="6" height="6" rx="0.6"/>
    <rect x="0" y="9" width="6" height="6" rx="0.6"/>
    <rect x="9" y="9" width="6" height="6" rx="0.6"/>
  </g>
</svg>
